<svg width="22" height="23" viewBox="0 0 22 23" fill="none" xmlns="http://www.w3.org/2000/svg">
<mask id="mask0" mask-type="alpha" maskUnits="userSpaceOnUse" x="2" y="2" width="18" height="19">
<path fill-rule="evenodd" clip-rule="evenodd" d="M11 20.284C15.9706 20.284 20 16.1974 20 11.1562H18C18 15.0771 14.866 18.2556 11 18.2556C7.13401 18.2556 4 15.0771 4 11.1562C4 7.23526 7.13401 4.05673 11 4.05673C12.1118 4.05673 13.1631 4.31962 14.0967 4.78745L15.4306 3.20916C14.1226 2.45746 12.6107 2.02832 11 2.02832C6.02944 2.02832 2 6.115 2 11.1562C2 16.1974 6.02944 20.284 11 20.284ZM17.7433 7.77781C18.1128 7.36146 18.0795 6.72019 17.669 6.34549C17.2585 5.97079 16.6262 6.00454 16.2567 6.42088L10.6641 12.7231L8.7094 10.7277C8.32014 10.3304 7.68698 10.3283 7.29519 10.7231C6.9034 11.1179 6.90135 11.76 7.2906 12.1574L9.99065 14.9136C10.1844 15.1114 10.4499 15.2196 10.7247 15.2127C10.9995 15.2058 11.2594 15.0845 11.4433 14.8773L17.7433 7.77781Z" fill="black"/>
</mask>
<g mask="url(#mask0)">
<rect width="22" height="22.3125" fill="#45A6C6"/>
</g>
</svg>
