<svg width="371" height="86" viewBox="0 0 371 86" fill="none" xmlns="http://www.w3.org/2000/svg">
<path d="M93.1084 30.3186H96.8104V56.0785H93.1084V30.3186Z" fill="white"/>
<path d="M103.129 37.3069C103.943 37.1086 105.024 36.898 106.373 36.675C107.721 36.4519 109.273 36.3404 111.029 36.3404C112.606 36.3404 113.917 36.5634 114.96 37.0095C116.003 37.4308 116.83 38.0379 117.44 38.8309C118.077 39.5991 118.522 40.5284 118.776 41.6188C119.031 42.7091 119.158 43.911 119.158 45.2244V56.0785H115.609V45.9678C115.609 44.7784 115.519 43.7623 115.341 42.9198C115.189 42.0772 114.922 41.3957 114.54 40.8753C114.158 40.3549 113.649 39.9832 113.013 39.7602C112.377 39.5124 111.589 39.3885 110.647 39.3885C110.265 39.3885 109.871 39.4009 109.464 39.4257C109.057 39.4504 108.663 39.4876 108.281 39.5372C107.925 39.5619 107.594 39.5991 107.289 39.6487C107.009 39.6982 106.805 39.7354 106.678 39.7602V56.0785H103.129V37.3069Z" fill="white"/>
<path d="M128.364 36.7493H135.882V39.6487H128.364V48.5698C128.364 49.5363 128.44 50.3417 128.593 50.986C128.746 51.6055 128.975 52.1011 129.28 52.4729C129.585 52.8198 129.967 53.0676 130.425 53.2163C130.883 53.365 131.417 53.4393 132.028 53.4393C133.096 53.4393 133.949 53.3278 134.585 53.1048C135.246 52.857 135.704 52.6835 135.959 52.5844L136.646 55.4466C136.289 55.62 135.666 55.8307 134.776 56.0785C133.885 56.3511 132.867 56.4874 131.722 56.4874C130.374 56.4874 129.254 56.3263 128.364 56.0041C127.499 55.6572 126.799 55.1492 126.265 54.4801C125.731 53.811 125.349 52.9933 125.12 52.0268C124.916 51.0356 124.815 49.8956 124.815 48.607V31.3594L128.364 30.7647V36.7493Z" fill="white"/>
<path d="M138.919 46.4511C138.919 44.7412 139.174 43.2543 139.683 41.9905C140.192 40.7019 140.866 39.6363 141.705 38.7937C142.545 37.9512 143.512 37.3193 144.606 36.898C145.7 36.4767 146.819 36.2661 147.964 36.2661C150.636 36.2661 152.684 37.0838 154.109 38.7194C155.534 40.3302 156.246 42.7959 156.246 46.1165C156.246 46.2652 156.246 46.4635 156.246 46.7113C156.246 46.9343 156.233 47.1449 156.208 47.3432H142.621C142.774 49.3504 143.372 50.8745 144.415 51.9153C145.458 52.9561 147.087 53.4765 149.3 53.4765C150.547 53.4765 151.59 53.3774 152.43 53.1791C153.295 52.9561 153.944 52.7454 154.376 52.5472L154.872 55.4466C154.44 55.6696 153.676 55.905 152.582 56.1528C151.514 56.4006 150.292 56.5245 148.919 56.5245C147.188 56.5245 145.687 56.2767 144.415 55.7811C143.168 55.2607 142.138 54.5545 141.324 53.6623C140.51 52.7702 139.899 51.717 139.492 50.5028C139.11 49.2637 138.919 47.9131 138.919 46.4511ZM152.544 44.5553C152.57 42.9941 152.163 41.7179 151.323 40.7267C150.509 39.7106 149.376 39.2026 147.926 39.2026C147.112 39.2026 146.387 39.3637 145.751 39.6859C145.14 39.9832 144.619 40.3797 144.186 40.8753C143.754 41.371 143.41 41.9409 143.156 42.5852C142.927 43.2295 142.774 43.8862 142.698 44.5553H152.544Z" fill="white"/>
<path d="M167.298 56.4502C165.11 56.4006 163.558 55.9422 162.642 55.0749C161.726 54.2075 161.268 52.857 161.268 51.0232V27.8281L164.818 27.2334V50.4656C164.818 51.0356 164.869 51.5064 164.97 51.8781C165.072 52.2498 165.237 52.5472 165.466 52.7702C165.695 52.9933 166.001 53.1667 166.382 53.2906C166.764 53.3898 167.235 53.4765 167.794 53.5508L167.298 56.4502Z" fill="white"/>
<path d="M177.734 56.4502C175.546 56.4006 173.994 55.9422 173.078 55.0749C172.162 54.2075 171.704 52.857 171.704 51.0232V27.8281L175.253 27.2334V50.4656C175.253 51.0356 175.304 51.5064 175.406 51.8781C175.508 52.2498 175.673 52.5472 175.902 52.7702C176.131 52.9933 176.436 53.1667 176.818 53.2906C177.2 53.3898 177.67 53.4765 178.23 53.5508L177.734 56.4502Z" fill="white"/>
<path d="M181.109 46.4511C181.109 44.7412 181.364 43.2543 181.872 41.9905C182.381 40.7019 183.056 39.6363 183.895 38.7937C184.735 37.9512 185.702 37.3193 186.796 36.898C187.89 36.4767 189.009 36.2661 190.154 36.2661C192.826 36.2661 194.874 37.0838 196.299 38.7194C197.724 40.3302 198.436 42.7959 198.436 46.1165C198.436 46.2652 198.436 46.4635 198.436 46.7113C198.436 46.9343 198.423 47.1449 198.398 47.3432H184.811C184.964 49.3504 185.562 50.8745 186.605 51.9153C187.648 52.9561 189.276 53.4765 191.49 53.4765C192.737 53.4765 193.78 53.3774 194.619 53.1791C195.485 52.9561 196.133 52.7454 196.566 52.5472L197.062 55.4466C196.629 55.6696 195.866 55.905 194.772 56.1528C193.704 56.4006 192.482 56.5245 191.108 56.5245C189.378 56.5245 187.877 56.2767 186.605 55.7811C185.358 55.2607 184.328 54.5545 183.514 53.6623C182.699 52.7702 182.089 51.717 181.682 50.5028C181.3 49.2637 181.109 47.9131 181.109 46.4511ZM194.734 44.5553C194.759 42.9941 194.352 41.7179 193.513 40.7267C192.699 39.7106 191.566 39.2026 190.116 39.2026C189.302 39.2026 188.577 39.3637 187.941 39.6859C187.33 39.9832 186.808 40.3797 186.376 40.8753C185.943 41.371 185.6 41.9409 185.345 42.5852C185.116 43.2295 184.964 43.8862 184.887 44.5553H194.734Z" fill="white"/>
<path d="M212.16 56.5245C210.557 56.5245 209.145 56.2767 207.923 55.7811C206.728 55.2855 205.71 54.5916 204.87 53.6995C204.056 52.8074 203.445 51.7542 203.038 50.5399C202.631 49.3009 202.428 47.9379 202.428 46.4511C202.428 44.9642 202.644 43.6013 203.076 42.3622C203.534 41.1232 204.171 40.0576 204.985 39.1655C205.799 38.2486 206.791 37.5423 207.962 37.0467C209.157 36.5263 210.48 36.2661 211.931 36.2661C212.821 36.2661 213.712 36.3404 214.602 36.4891C215.493 36.6378 216.345 36.8732 217.159 37.1954L216.358 40.1319C215.823 39.8841 215.2 39.6859 214.488 39.5372C213.801 39.3885 213.063 39.3141 212.274 39.3141C210.29 39.3141 208.763 39.9213 207.694 41.1355C206.651 42.3498 206.13 44.1217 206.13 46.4511C206.13 47.4919 206.244 48.4459 206.473 49.3133C206.728 50.1806 207.109 50.924 207.618 51.5436C208.152 52.1631 208.827 52.6463 209.641 52.9933C210.455 53.3154 211.447 53.4765 212.618 53.4765C213.559 53.4765 214.411 53.3898 215.175 53.2163C215.938 53.0428 216.536 52.857 216.968 52.6587L217.465 55.5581C217.261 55.682 216.968 55.8059 216.587 55.9298C216.205 56.0289 215.773 56.1157 215.289 56.19C214.806 56.2891 214.284 56.3635 213.724 56.413C213.19 56.4874 212.669 56.5245 212.16 56.5245Z" fill="white"/>
<path d="M224.595 36.7493H232.114V39.6487H224.595V48.5698C224.595 49.5363 224.672 50.3417 224.824 50.986C224.977 51.6055 225.206 52.1011 225.511 52.4729C225.817 52.8198 226.198 53.0676 226.656 53.2163C227.114 53.365 227.649 53.4393 228.259 53.4393C229.328 53.4393 230.18 53.3278 230.816 53.1048C231.478 52.857 231.936 52.6835 232.19 52.5844L232.877 55.4466C232.521 55.62 231.898 55.8307 231.007 56.0785C230.117 56.3511 229.099 56.4874 227.954 56.4874C226.605 56.4874 225.486 56.3263 224.595 56.0041C223.73 55.6572 223.031 55.1492 222.496 54.4801C221.962 53.811 221.58 52.9933 221.351 52.0268C221.148 51.0356 221.046 49.8956 221.046 48.607V31.3594L224.595 30.7647V36.7493Z" fill="white"/>
<path d="M250.387 52.2127C250.667 52.2374 251.035 52.2622 251.493 52.287C251.951 52.287 252.575 52.287 253.363 52.287C256.595 52.287 258.999 51.494 260.577 49.908C262.18 48.2973 262.981 46.0546 262.981 43.18C262.981 40.2558 262.205 38.0131 260.653 36.4519C259.101 34.8907 256.697 34.1101 253.44 34.1101C252.015 34.1101 250.997 34.1473 250.387 34.2216V52.2127ZM268.019 43.18C268.019 45.4103 267.662 47.3556 266.95 49.0159C266.238 50.6515 265.22 52.0268 263.897 53.1419C262.599 54.2323 261.022 55.0501 259.165 55.5953C257.333 56.1157 255.297 56.3759 253.058 56.3759C251.99 56.3759 250.781 56.3263 249.433 56.2272C248.084 56.1528 246.799 55.9794 245.578 55.7068V30.6903C246.799 30.4178 248.097 30.2443 249.471 30.1699C250.845 30.0956 252.066 30.0584 253.134 30.0584C255.348 30.0584 257.371 30.3186 259.203 30.839C261.035 31.3347 262.599 32.1276 263.897 33.218C265.22 34.2836 266.238 35.6466 266.95 37.3069C267.662 38.9424 268.019 40.9001 268.019 43.18Z" fill="white"/>
<path d="M284.414 40.6895C284.032 40.5656 283.498 40.4417 282.811 40.3178C282.149 40.1691 281.373 40.0947 280.483 40.0947C279.974 40.0947 279.427 40.1443 278.842 40.2434C278.282 40.3426 277.888 40.4293 277.659 40.5036V56.0785H273.041V37.5671C273.931 37.2449 275.038 36.9476 276.361 36.675C277.709 36.3776 279.198 36.2289 280.826 36.2289C281.132 36.2289 281.488 36.2537 281.895 36.3032C282.302 36.328 282.709 36.3776 283.116 36.4519C283.523 36.5015 283.918 36.5758 284.299 36.675C284.681 36.7493 284.986 36.8236 285.215 36.898L284.414 40.6895Z" fill="white"/>
<path d="M293.089 56.0785H288.471V36.6378H293.089V56.0785ZM293.585 30.9505C293.585 31.7931 293.306 32.4622 292.746 32.9578C292.186 33.4534 291.525 33.7012 290.761 33.7012C289.973 33.7012 289.298 33.4534 288.739 32.9578C288.179 32.4622 287.899 31.7931 287.899 30.9505C287.899 30.0832 288.179 29.4017 288.739 28.9061C289.298 28.4105 289.973 28.1627 290.761 28.1627C291.525 28.1627 292.186 28.4105 292.746 28.9061C293.306 29.4017 293.585 30.0832 293.585 30.9505Z" fill="white"/>
<path d="M305.927 56.4502C304.553 56.4254 303.408 56.2767 302.492 56.0041C301.601 55.7316 300.889 55.3475 300.355 54.8518C299.82 54.3314 299.439 53.6995 299.21 52.9561C299.006 52.1879 298.904 51.3205 298.904 50.3541V27.9768L303.522 27.2334V49.4991C303.522 50.0443 303.56 50.5028 303.637 50.8745C303.739 51.2462 303.904 51.5683 304.133 51.8409C304.362 52.0887 304.667 52.287 305.049 52.4357C305.456 52.5596 305.965 52.6587 306.575 52.7331L305.927 56.4502Z" fill="white"/>
<path d="M317.257 56.4502C315.883 56.4254 314.738 56.2767 313.822 56.0041C312.931 55.7316 312.219 55.3475 311.685 54.8518C311.15 54.3314 310.769 53.6995 310.54 52.9561C310.336 52.1879 310.234 51.3205 310.234 50.3541V27.9768L314.852 27.2334V49.4991C314.852 50.0443 314.891 50.5028 314.967 50.8745C315.069 51.2462 315.234 51.5683 315.463 51.8409C315.692 52.0887 315.997 52.287 316.379 52.4357C316.786 52.5596 317.295 52.6587 317.906 52.7331L317.257 56.4502Z" fill="white"/>
<path d="M326.297 56.0785H321.679V36.6378H326.297V56.0785ZM326.793 30.9505C326.793 31.7931 326.513 32.4622 325.954 32.9578C325.394 33.4534 324.732 33.7012 323.969 33.7012C323.18 33.7012 322.506 33.4534 321.946 32.9578C321.386 32.4622 321.107 31.7931 321.107 30.9505C321.107 30.0832 321.386 29.4017 321.946 28.9061C322.506 28.4105 323.18 28.1627 323.969 28.1627C324.732 28.1627 325.394 28.4105 325.954 28.9061C326.513 29.4017 326.793 30.0832 326.793 30.9505Z" fill="white"/>
<path d="M332.188 37.2697C333.079 37.0219 334.237 36.7865 335.661 36.5634C337.086 36.3404 338.664 36.2289 340.394 36.2289C342.022 36.2289 343.383 36.4519 344.477 36.898C345.571 37.3193 346.436 37.9264 347.073 38.7194C347.734 39.4876 348.192 40.4293 348.446 41.5444C348.726 42.6348 348.866 43.8367 348.866 45.1501V56.0785H344.248V45.8563C344.248 44.8155 344.172 43.9358 344.019 43.2171C343.892 42.4737 343.663 41.879 343.332 41.4329C343.027 40.9621 342.595 40.6275 342.035 40.4293C341.501 40.2063 340.839 40.0947 340.05 40.0947C339.465 40.0947 338.854 40.1319 338.218 40.2063C337.582 40.2806 337.112 40.3426 336.806 40.3921V56.0785H332.188V37.2697Z" fill="white"/>
<path d="M358.139 45.8563C358.139 47.7645 358.559 49.1646 359.398 50.0567C360.263 50.924 361.37 51.3577 362.719 51.3577C363.456 51.3577 364.143 51.2586 364.779 51.0603C365.441 50.8621 365.975 50.6267 366.382 50.3541V40.2806C366.052 40.2063 365.645 40.1443 365.161 40.0947C364.678 40.0204 364.067 39.9832 363.329 39.9832C361.65 39.9832 360.365 40.5284 359.475 41.6188C358.584 42.6844 358.139 44.0969 358.139 45.8563ZM371 54.1084C371 57.206 370.186 59.4735 368.558 60.9108C366.955 62.3481 364.487 63.0667 361.154 63.0667C359.933 63.0667 358.737 62.9676 357.566 62.7694C356.421 62.5711 355.378 62.3109 354.437 61.9888L355.276 58.1601C356.065 58.4822 356.956 58.7424 357.948 58.9407C358.966 59.1389 360.06 59.2381 361.23 59.2381C363.088 59.2381 364.411 58.8664 365.199 58.1229C365.988 57.3795 366.382 56.2767 366.382 54.8147V54.0712C365.924 54.2943 365.314 54.5173 364.55 54.7403C363.813 54.9633 362.96 55.0749 361.993 55.0749C360.721 55.0749 359.551 54.8766 358.482 54.4801C357.439 54.0836 356.536 53.5013 355.773 52.7331C355.035 51.9648 354.45 51.0108 354.017 49.8708C353.61 48.7061 353.406 47.368 353.406 45.8563C353.406 44.4438 353.623 43.1428 354.055 41.9533C354.513 40.7638 355.162 39.7478 356.002 38.9053C356.867 38.0627 357.91 37.406 359.131 36.9352C360.352 36.4643 361.739 36.2289 363.291 36.2289C364.792 36.2289 366.217 36.3404 367.565 36.5634C368.914 36.7865 370.059 37.0219 371 37.2697V54.1084Z" fill="white"/>
<g clip-path="url(#clip0)">
<path fill-rule="evenodd" clip-rule="evenodd" d="M20.9766 8.8235C31.3564 15.6492 56.893 18.7452 53.445 11.841C43.1635 7.59072 31.8555 6.53979 20.9766 8.8235Z" fill="#183D5B"/>
<path fill-rule="evenodd" clip-rule="evenodd" d="M18.875 43.4524C23.8382 46.2269 29.1111 48.3967 34.5824 49.916C42.4002 52.0041 50.3976 52.1489 52.7561 48.377C54.9949 42.3661 31.8109 38.389 18.875 43.4524Z" fill="#183D5B"/>
<path fill-rule="evenodd" clip-rule="evenodd" d="M0.664961 21.7261C0.0244513 23.778 0.40756 26.0351 1.59879 28.3647C4.31048 25.1419 10.2846 22.7762 17.3841 21.2855C14.3491 18.268 12.4515 15.0513 12.3857 11.6294C6.75279 14.2245 2.5805 17.7972 0.664961 21.7261Z" fill="#183D5B"/>
<path fill-rule="evenodd" clip-rule="evenodd" d="M27.2256 69.4028C33.0979 71.7082 39.0002 72.9152 40.814 70.6098C41.1791 68.9019 36.5818 68.3467 33.924 68.238C31.6332 68.1218 29.3454 68.5196 27.2256 69.4028Z" fill="#183D5B"/>
<path fill-rule="evenodd" clip-rule="evenodd" d="M25.5077 56.307C20.834 54.0349 16.4184 51.2587 12.3383 48.0269C10.4886 50.5073 9.94391 53.736 11.3087 57.858C12.6662 59.631 14.1465 61.3049 15.7384 62.8671C16.9356 59.5659 21.5808 57.4355 25.5077 56.307Z" fill="#183D5B"/>
<path fill-rule="evenodd" clip-rule="evenodd" d="M22.4727 77.1518C24.7266 80.3484 27.2892 83.3121 30.1229 85.9992C32.7567 83.2265 35.107 80.1937 37.1386 76.9466C32.2325 76.5787 27.4716 75.1018 23.209 72.6255C22.3938 73.9821 22.13 75.6038 22.4727 77.1518Z" fill="#183D5B"/>
<path fill-rule="evenodd" clip-rule="evenodd" d="M47.3631 59.186C49.2787 55.4201 34.5889 53.6941 25.502 56.3072C20.0367 57.8764 13.1408 61.4008 16.1937 67.3152L22.4731 77.1524C21.2759 71.1173 27.9084 67.9429 33.9244 68.1903C36.5822 68.2989 41.1795 68.8542 40.8144 70.5621C43.3655 66.998 45.5591 63.1872 47.3631 59.186Z" fill="#79A9B9"/>
<path fill-rule="evenodd" clip-rule="evenodd" d="M52.7562 48.3761C56.0725 39.4743 3.56269 35.0023 11.3087 57.8632C5.71169 50.1444 1.78483 42.8962 0.0249264 32.8056C-1.35786 17.8929 57.5929 15.0443 58.6884 26.1127C59.0296 34.8334 57.3296 41.0857 52.7562 48.3761Z" fill="#79A9B9"/>
<path fill-rule="evenodd" clip-rule="evenodd" d="M0.666016 21.7258C6.10735 10.5609 29.8301 2.24456 53.4512 11.8222C52.5839 10.5751 51.6018 9.41322 50.518 8.35206C45.4119 3.22828 38.1508 -0.000488281 29.3034 -0.000488281C19.564 -0.000488281 11.866 3.83782 6.68202 9.90911C5.93214 10.7754 5.2345 11.6864 4.59288 12.637C2.73324 15.3932 1.40138 18.4758 0.666016 21.7258Z" fill="#79A9B9"/>
</g>
<defs>
<clipPath id="clip0">
<rect width="58.7297" height="86" fill="white"/>
</clipPath>
</defs>
</svg>
