<svg width="62" height="62" viewBox="0 0 62 62" fill="none" xmlns="http://www.w3.org/2000/svg">
<path d="M40.8898 0.230469H10.1206C7.43267 0.230469 5.1986 2.17333 4.72717 4.72717C2.17333 5.1986 0.230469 7.43267 0.230469 10.1206V56.2744C0.230469 59.3041 2.6953 61.7689 5.72497 61.7689H36.4942C39.1821 61.7689 41.4162 59.8261 41.8876 57.2722C44.4415 56.8008 46.3843 54.5667 46.3843 51.8788V5.72497C46.3843 2.6953 43.9195 0.230469 40.8898 0.230469ZM39.7909 56.2744C39.7909 58.092 38.3118 59.5711 36.4942 59.5711H5.72497C3.90739 59.5711 2.42827 58.092 2.42827 56.2744V10.1206C2.42827 8.303 3.90739 6.82387 5.72497 6.82387H36.4942C38.3118 6.82387 39.7909 8.303 39.7909 10.1206V56.2744ZM44.1865 51.8788C44.1865 53.3096 43.2645 54.5184 41.9887 54.9733V10.1206C41.9887 7.09091 39.5239 4.62607 36.4942 4.62607H7.02607C7.48102 3.35025 8.68981 2.42827 10.1206 2.42827H40.8898C42.7074 2.42827 44.1865 3.90739 44.1865 5.72497V51.8788Z" fill="url(#paint0_linear)"/>
<path d="M21.1097 20.0105C24.1394 20.0105 26.6042 17.5457 26.6042 14.516C26.6042 11.4863 24.1394 9.02148 21.1097 9.02148C18.0801 9.02148 15.6152 11.4863 15.6152 14.516C15.6152 17.5457 18.0801 20.0105 21.1097 20.0105ZM21.1097 11.2193C22.9273 11.2193 24.4064 12.6984 24.4064 14.516C24.4064 16.3336 22.9273 17.8127 21.1097 17.8127C19.2922 17.8127 17.813 16.3336 17.813 14.516C17.813 12.6984 19.2922 11.2193 21.1097 11.2193Z" fill="url(#paint1_linear)"/>
<path fill-rule="evenodd" clip-rule="evenodd" d="M6.82422 22.208H35.3956V24.4058H6.82422V22.208ZM6.82422 26.6037H35.3956V28.8015H6.82422V26.6037ZM35.3957 30.9993H11.2199V33.1971H35.3957V30.9993ZM11.2199 35.395H35.3957V37.5928H11.2199V35.395ZM35.3957 39.7906H11.2199V41.9884H35.3957V39.7906ZM11.2199 44.1863H35.3957V46.3841H11.2199V44.1863ZM15.6154 50.7796H6.82422V52.9774H15.6154V50.7796ZM26.6045 50.7796H35.3957V52.9774H26.6045V50.7796ZM9.02202 30.9993H6.82422V33.1971H9.02202V30.9993ZM6.82422 35.395H9.02202V37.5928H6.82422V35.395ZM9.02202 39.7906H6.82422V41.9884H9.02202V39.7906ZM6.82422 44.1863H9.02202V46.3841H6.82422V44.1863Z" fill="url(#paint2_linear)"/>
<path d="M61.7693 32.0982V23.307C61.7693 21.4894 60.2902 20.0103 58.4726 20.0103H57.3737V18.9114C57.3737 18.3048 56.8814 17.8125 56.2748 17.8125H51.8792C51.2726 17.8125 50.7803 18.3048 50.7803 18.9114V58.4718C50.7803 58.763 50.8957 59.0433 51.1023 59.2488L53.3001 61.4466C53.5143 61.6609 53.7957 61.7685 54.077 61.7685C54.3583 61.7685 54.6396 61.6609 54.8539 61.4466L57.0517 59.2488C57.2583 59.0433 57.3737 58.763 57.3737 58.4718V22.2081H58.4726C59.0781 22.2081 59.5715 22.7015 59.5715 23.307V31.8389L58.588 33.8048C58.433 34.1147 58.433 34.4784 58.588 34.7883L59.5715 36.7532V39.7905H61.7693V36.4938C61.7693 36.3235 61.7297 36.1543 61.6539 36.0026L60.8001 34.296L61.6528 32.5894C61.7297 32.4367 61.7693 32.2685 61.7693 32.0982ZM55.1759 20.0103V37.5927H52.9781V20.0103H55.1759ZM54.077 59.1158L52.9781 58.0169V39.7905H55.1759V58.0169L54.077 59.1158Z" fill="url(#paint3_linear)"/>
<defs>
<linearGradient id="paint0_linear" x1="0.230469" y1="0.230469" x2="46.3843" y2="61.7689" gradientUnits="userSpaceOnUse">
<stop stop-color="#45A6C6"/>
<stop offset="1" stop-color="#A7E4F9"/>
</linearGradient>
<linearGradient id="paint1_linear" x1="15.6152" y1="9.02148" x2="22.9521" y2="22.0648" gradientUnits="userSpaceOnUse">
<stop stop-color="#45A6C6"/>
<stop offset="1" stop-color="#A7E4F9"/>
</linearGradient>
<linearGradient id="paint2_linear" x1="6.82422" y1="22.208" x2="28.1297" y2="57.3789" gradientUnits="userSpaceOnUse">
<stop stop-color="#45A6C6"/>
<stop offset="1" stop-color="#A7E4F9"/>
</linearGradient>
<linearGradient id="paint3_linear" x1="50.7803" y1="17.8125" x2="76.2703" y2="29.1414" gradientUnits="userSpaceOnUse">
<stop stop-color="#45A6C6"/>
<stop offset="1" stop-color="#A7E4F9"/>
</linearGradient>
</defs>
</svg>
